<svg width="45" height="60" viewBox="0 0 45 60" fill="none" xmlns="http://www.w3.org/2000/svg">
<path d="M37.9725 0L25.3107 18.9873H31.6441L44.302 0H37.9725Z" fill="#428BC1"/>
<path d="M31.6441 0L18.9863 18.9873H25.3107L37.9725 0H31.6441Z" fill="#E8E8E8"/>
<path d="M25.3107 0L12.6569 18.9873H18.9863L31.6441 0H25.3107Z" fill="#ED4C5C"/>
<path d="M10.5467 14.768C9.96666 14.768 9.49163 15.242 9.49163 15.8231V25.3167C9.49163 25.8977 9.96666 26.3718 10.5467 26.3718H33.7483C34.3263 26.3718 34.8033 25.8977 34.8033 25.3167V15.8231C34.8033 15.242 34.3263 14.768 33.7483 14.768H10.5467ZM32.6982 22.1515C32.6982 22.7315 32.2211 23.2065 31.6431 23.2065H12.6558C12.0758 23.2065 11.6008 22.7315 11.6008 22.1515V17.9322C11.6008 17.3512 12.0758 16.8771 12.6558 16.8771H31.6431C32.2211 16.8771 32.6982 17.3512 32.6982 17.9322V22.1515Z" fill="#FFC200"/>
<path d="M12.6568 18.9873H18.9863L6.32842 0H0L12.6568 18.9873Z" fill="#ED4C5C"/>
<path d="M18.9863 18.9873H25.3107L12.6568 0H6.32843L18.9863 18.9873Z" fill="#E8E8E8"/>
<path opacity="0.5" d="M23.2006 3.16522L20.0413 7.91154L27.4208 18.9923H31.6441L32.6992 17.4102L23.2006 3.16522Z" fill="#3E4347"/>
<path d="M25.3107 18.9873H31.6441L18.9863 0H12.6569L25.3107 18.9873Z" fill="#428BC1"/>
<path d="M22.1505 60C33.0401 60 41.8678 51.1723 41.8678 40.2827C41.8678 29.3931 33.0401 20.5654 22.1505 20.5654C11.2609 20.5654 2.43316 29.3931 2.43316 40.2827C2.43316 51.1723 11.2609 60 22.1505 60Z" fill="#FFC200"/>
<path d="M22.4205 22.3615C12.3698 22.3615 4.21928 30.522 4.21928 40.5917C4.21928 43.5919 4.95733 46.4211 6.23941 48.9183C5.59037 46.9331 5.22734 44.818 5.22734 42.6198C5.22734 31.9421 13.4769 23.2155 23.9336 22.4385C23.4316 22.3975 22.9335 22.3615 22.4165 22.3615" fill="#E68A00"/>
<path d="M36.1314 29.0019C41.2667 37.9705 38.5826 49.5723 29.727 55.5247C27.8999 56.7498 25.9467 57.6328 23.9426 58.2119C26.7238 57.8669 29.476 56.8948 31.9631 55.2217C40.3177 49.6083 42.5838 38.4046 37.0265 30.2C36.7444 29.783 36.4394 29.392 36.1274 29.0069" fill="#FFE394"/>
<path d="M22.1505 32.3122V25.9297L18.9053 35.9194L20.4004 37.7135L22.1505 32.3122Z" fill="#F2B200"/>
<path d="M23.9046 37.7135L25.3907 35.9194L22.1505 25.9297V32.3122L23.9046 37.7135Z" fill="#E68A00"/>
<path d="M24.9887 41.0527L27.4008 42.0928L35.9004 35.9194L29.581 37.7135L24.9887 41.0527Z" fill="#C47500"/>
<path d="M29.581 37.7135L35.9004 35.9194H25.3907L23.9046 37.7135H29.581Z" fill="#FFE394"/>
<path d="M20.4004 37.7135L18.9053 35.9194H8.40055L14.721 37.7135H20.4004Z" fill="#FFD252"/>
<path d="M14.721 37.7135L8.40055 35.9194L16.8991 42.0928L19.3103 41.0527L14.721 37.7135Z" fill="#FFDB75"/>
<path d="M24.9887 41.0527L26.7418 46.4431L30.649 52.0835L27.4008 42.0928L24.9887 41.0527Z" fill="#E68A00"/>
<path d="M22.1505 43.1129V45.909L30.649 52.0835L26.7418 46.4431L22.1505 43.1129Z" fill="#F2B200"/>
<path d="M19.3103 41.0527L16.8991 42.0928L13.6509 52.0835L17.5572 46.4431L19.3103 41.0527Z" fill="#F2B200"/>
<path d="M17.5572 46.4431L13.6509 52.0835L22.1505 45.909V43.1129L17.5572 46.4431Z" fill="#E68A00"/>
<path d="M23.9046 37.7135L22.1505 32.3122L20.4004 37.7135H14.721L19.3103 41.0527L17.5572 46.4431L22.1505 43.1129L26.7418 46.4431L24.9887 41.0527L29.581 37.7135H23.9046Z" fill="#FFCE31"/>
</svg>
